<svg width="41" height="36" fill="none" xmlns="http://www.w3.org/2000/svg"><path d="M39.414 8.203c.625.89.766 1.899.422 3.024L33.39 32.46c-.297 1-.899 1.836-1.805 2.508-.89.687-1.844 1.031-2.86 1.031H7.095c-1.203 0-2.367-.422-3.492-1.266-1.11-.828-1.883-1.851-2.32-3.07-.376-1.047-.391-2.039-.048-2.977 0-.062.024-.273.07-.632.048-.36.079-.649.094-.867.016-.125-.007-.29-.07-.493-.062-.218-.086-.375-.07-.468.031-.172.094-.336.187-.493a5.81 5.81 0 0 1 .375-.539c.172-.218.305-.406.399-.562.36-.594.71-1.305 1.054-2.133.344-.844.579-1.563.704-2.156.046-.157.046-.39 0-.703-.032-.313-.032-.532 0-.657.046-.172.18-.39.398-.656.219-.265.352-.445.398-.539.329-.562.657-1.281.985-2.156.328-.875.523-1.578.586-2.11.015-.14-.008-.39-.07-.75-.047-.359-.04-.578.023-.656.062-.203.234-.437.516-.703a9.58 9.58 0 0 0 .515-.539c.297-.406.625-1.063.984-1.969.376-.922.594-1.68.657-2.273.015-.125-.008-.32-.07-.586-.063-.281-.079-.492-.047-.633a1.3 1.3 0 0 1 .21-.422c.11-.156.25-.336.422-.539s.305-.367.399-.492c.125-.188.25-.422.375-.703.14-.297.258-.57.351-.82.11-.266.235-.547.375-.844.157-.313.313-.563.47-.75.155-.203.358-.39.608-.563.266-.172.547-.258.844-.258a4.45 4.45 0 0 1 1.125.118l-.023.07C14.602.07 15 0 15.203 0H33.04c1.156 0 2.047.437 2.672 1.313.625.875.766 1.89.422 3.046L29.71 25.594c-.563 1.86-1.125 3.062-1.688 3.61-.546.53-1.546.796-3 .796H4.656c-.422 0-.718.117-.89.352-.172.25-.18.585-.024 1.007C4.117 32.453 5.242 33 7.117 33H28.75c.453 0 .89-.117 1.313-.352.421-.25.695-.578.82-.984l7.031-23.133c.11-.344.148-.789.117-1.336.594.235 1.055.57 1.383 1.008Zm-24.937.047a.643.643 0 0 0 .046.54c.094.14.25.21.47.21h14.25c.202 0 .398-.07.585-.21.203-.157.336-.337.399-.54l.492-1.5c.062-.203.047-.375-.047-.516-.094-.156-.25-.234-.469-.234h-14.25c-.203 0-.406.078-.61.234a1.009 1.009 0 0 0-.374.516l-.492 1.5Zm-1.946 6c-.062.203-.047.383.047.54.094.14.25.21.469.21h14.25c.203 0 .398-.07.586-.21.203-.157.336-.337.398-.54l.492-1.5c.063-.203.047-.375-.046-.516-.094-.156-.25-.234-.47-.234h-14.25c-.202 0-.405.078-.609.234a1.017 1.017 0 0 0-.375.516l-.492 1.5Z" fill="#fff"/></svg>