<svg width="188" height="199" fill="none" xmlns="http://www.w3.org/2000/svg"><path clip-rule="evenodd" d="m150.18 11.948 23.34 18.996a11.578 11.578 0 0 1-.096 16.68l-17.736 21.6-60.36 73.644a7.663 7.663 0 0 1-4.02 2.484l-31.296 7.2a7.932 7.932 0 0 1-8.208-7.02l1.464-30.876a7.196 7.196 0 0 1 1.776-4.26l57.756-70.38L133.14 15.2c3.952-5.38 11.386-6.798 17.04-3.252Z" stroke="#fff" stroke-width="20" stroke-linecap="round" stroke-linejoin="round"/><path d="M9 180.896a9 9 0 0 0-9 9 9 9 0 0 0 9 9v-18Zm164.4 18a9 9 0 0 0 0-18v18ZM121.146 36.648a9 9 0 0 0-11.714-4.978 9 9 0 0 0-4.978 11.715l16.692-6.737Zm36.526 41.39a9 9 0 1 0-3.968-17.557l3.968 17.558ZM9 198.897h164.4v-18H9v18Zm95.454-155.511c2.792 6.916 8.526 16.776 17.064 24.369 8.695 7.732 21.078 13.69 36.154 10.285l-3.968-17.558c-7.712 1.743-14.373-.975-20.224-6.178-6.01-5.344-10.326-12.68-12.334-17.655l-16.692 6.737Z" fill="#fff"/></svg>