<svg width="34" height="35" fill="none" xmlns="http://www.w3.org/2000/svg"><path d="M20.491 21.225c1.768-1.767 2.652-3.89 2.652-6.368 0-2.477-.884-4.594-2.652-6.348-1.754-1.768-3.87-2.652-6.348-2.652-2.478 0-4.6.884-6.368 2.652-1.755 1.754-2.632 3.87-2.632 6.348 0 2.478.877 4.6 2.632 6.368 1.767 1.755 3.89 2.632 6.368 2.632 2.477 0 4.594-.877 6.348-2.632ZM33.43 31.571c0 .697-.255 1.3-.764 1.808-.509.51-1.111.764-1.808.764-.723 0-1.326-.255-1.808-.764l-6.89-6.87C19.76 28.169 17.088 29 14.143 29a14.08 14.08 0 0 1-5.505-1.105c-1.74-.75-3.247-1.754-4.52-3.013-1.259-1.273-2.263-2.78-3.013-4.52A14.08 14.08 0 0 1 0 14.857c0-1.915.368-3.743 1.105-5.484.75-1.755 1.754-3.261 3.013-4.52 1.273-1.273 2.78-2.277 4.52-3.014A13.862 13.862 0 0 1 14.143.714c1.915 0 3.743.375 5.484 1.125 1.755.737 3.261 1.741 4.52 3.014 1.273 1.259 2.277 2.765 3.014 4.52a13.718 13.718 0 0 1 1.125 5.484c0 2.947-.83 5.618-2.491 8.016l6.89 6.89c.496.496.744 1.099.744 1.808Z" fill="#fff"/></svg>