<svg width="44" height="35" fill="none" xmlns="http://www.w3.org/2000/svg"><path d="M8.054 26.518c.916.916 1.375 2.03 1.375 3.34 0 1.309-.459 2.422-1.375 3.338-.917.917-2.03 1.375-3.34 1.375s-2.422-.458-3.339-1.375C.458 32.28 0 31.166 0 29.857c0-1.31.458-2.422 1.375-3.34.917-.916 2.03-1.374 3.34-1.374 1.309 0 2.422.458 3.339 1.375Zm0-12.572c.916.917 1.375 2.03 1.375 3.34s-.459 2.422-1.375 3.339C7.137 21.542 6.024 22 4.714 22s-2.422-.458-3.339-1.375C.458 19.708 0 18.595 0 17.285c0-1.309.458-2.422 1.375-3.339.917-.916 2.03-1.375 3.34-1.375 1.309 0 2.422.459 3.339 1.375ZM44 27.5v4.714a.776.776 0 0 1-.245.565.735.735 0 0 1-.54.221H13.356a.82.82 0 0 1-.565-.221.82.82 0 0 1-.22-.565V27.5c0-.213.073-.393.22-.54a.776.776 0 0 1 .565-.246h29.857a.7.7 0 0 1 .54.246.7.7 0 0 1 .246.54ZM8.054 1.375c.916.917 1.375 2.03 1.375 3.34 0 1.309-.459 2.422-1.375 3.339-.917.916-2.03 1.375-3.34 1.375S2.292 8.97 1.375 8.054C.458 7.137 0 6.024 0 4.714s.458-2.422 1.375-3.339C2.292.458 3.405 0 4.715 0c1.309 0 2.422.458 3.339 1.375ZM44 14.929v4.714a.776.776 0 0 1-.245.565.735.735 0 0 1-.54.22H13.356a.82.82 0 0 1-.565-.22.82.82 0 0 1-.22-.565v-4.714c0-.213.073-.393.22-.54a.776.776 0 0 1 .565-.246h29.857a.7.7 0 0 1 .54.245.7.7 0 0 1 .246.54Zm0-12.572v4.714a.776.776 0 0 1-.245.565.735.735 0 0 1-.54.221H13.356a.82.82 0 0 1-.565-.22.82.82 0 0 1-.22-.566V2.357c0-.213.073-.393.22-.54a.776.776 0 0 1 .565-.246h29.857a.7.7 0 0 1 .54.246.7.7 0 0 1 .246.54Z" fill="#fff"/></svg>