<svg width="27" height="39" fill="none" xmlns="http://www.w3.org/2000/svg"><path d="M27 16.5v3c0 3.453-1.156 6.46-3.469 9.023-2.297 2.547-5.14 4.008-8.531 4.383V36h6c.406 0 .758.148 1.055.445.297.297.445.649.445 1.055 0 .406-.148.758-.445 1.055A1.441 1.441 0 0 1 21 39H6c-.406 0-.758-.148-1.055-.445A1.442 1.442 0 0 1 4.5 37.5c0-.406.148-.758.445-1.055A1.441 1.441 0 0 1 6 36h6v-3.094c-3.39-.375-6.242-1.836-8.555-4.383C1.148 25.961 0 22.953 0 19.5v-3c0-.406.148-.758.445-1.055A1.441 1.441 0 0 1 1.5 15c.406 0 .758.148 1.055.445.297.297.445.649.445 1.055v3c0 2.89 1.023 5.367 3.07 7.43C8.133 28.977 10.61 30 13.5 30c2.89 0 5.36-1.023 7.406-3.07C22.97 24.867 24 22.39 24 19.5v-3c0-.406.148-.758.445-1.055A1.442 1.442 0 0 1 25.5 15c.406 0 .758.148 1.055.445.297.297.445.649.445 1.055Zm-6-9v12c0 2.063-.734 3.828-2.203 5.297C17.328 26.266 15.562 27 13.5 27c-2.063 0-3.828-.734-5.297-2.203C6.734 23.328 6 21.562 6 19.5v-12c0-2.063.734-3.828 2.203-5.297C9.672.734 11.438 0 13.5 0c2.063 0 3.828.734 5.297 2.203C20.266 3.672 21 5.438 21 7.5Z" fill="#fff"/></svg>