<svg width="36" height="36" fill="none" xmlns="http://www.w3.org/2000/svg"><path d="M8.953 2.414C11.72.804 14.734 0 18 0c3.266 0 6.273.805 9.023 2.414a17.864 17.864 0 0 1 6.563 6.563C35.196 11.727 36 14.734 36 18s-.805 6.281-2.414 9.047a17.918 17.918 0 0 1-6.563 6.539C24.273 35.196 21.266 36 18 36s-6.281-.805-9.047-2.414a17.974 17.974 0 0 1-6.539-6.54C.804 24.282 0 21.267 0 18c0-3.266.805-6.273 2.414-9.023a17.92 17.92 0 0 1 6.54-6.563Zm15.469 9.797c-.031.016-.11.094-.235.234-.109.125-.21.196-.304.211.031 0 .062-.039.094-.117.046-.078.085-.164.117-.258a.912.912 0 0 1 .093-.164c.094-.11.266-.226.516-.351.219-.094.625-.188 1.219-.282.531-.125.93-.039 1.195.258-.031-.031.04-.133.211-.305.188-.171.305-.265.352-.28.047-.032.164-.063.351-.095.188-.046.305-.109.352-.187l.047-.516c-.188.016-.328-.039-.422-.164a1.079 1.079 0 0 1-.14-.492c0 .031-.048.094-.141.188 0-.11-.04-.172-.118-.188a.523.523 0 0 0-.257.024c-.11.03-.18.039-.211.023a1.056 1.056 0 0 1-.352-.164c-.078-.078-.14-.211-.187-.399a6.696 6.696 0 0 0-.094-.351c-.031-.078-.11-.164-.235-.258a.872.872 0 0 1-.21-.234 1.151 1.151 0 0 0-.07-.117.521.521 0 0 0-.071-.165.226.226 0 0 0-.094-.117c-.031-.047-.07-.07-.117-.07s-.102.04-.164.117l-.188.235c-.047.078-.078.117-.093.117a.155.155 0 0 0-.141-.024.261.261 0 0 0-.117.024c-.016 0-.047.023-.094.07a1.154 1.154 0 0 1-.117.07.552.552 0 0 1-.211.07c-.078.016-.14.032-.188.048.235-.079.227-.165-.023-.258-.156-.063-.281-.086-.375-.07.14-.063.195-.157.164-.282a.51.51 0 0 0-.187-.328h.117c-.016-.062-.086-.125-.211-.187a1.898 1.898 0 0 0-.399-.211 2.017 2.017 0 0 1-.304-.141c-.125-.078-.39-.148-.797-.21-.406-.08-.664-.087-.774-.024-.078.093-.117.18-.117.257.016.063.047.172.094.329.062.14.094.234.094.28.015.095-.032.196-.14.306-.095.109-.142.203-.142.28 0 .11.11.235.329.376.218.125.296.289.234.492-.047.125-.172.25-.375.375s-.328.219-.375.281a.54.54 0 0 0-.047.445.945.945 0 0 0 .258.376c.031.03.039.062.023.093 0 .031-.023.07-.07.117l-.14.094-.141.07-.07.047c-.172.079-.337.032-.493-.14a1.598 1.598 0 0 1-.304-.61c-.11-.39-.235-.625-.375-.703-.36-.125-.586-.117-.68.024-.078-.203-.399-.407-.961-.61-.39-.14-.844-.172-1.36-.093.094-.016.094-.133 0-.352-.109-.234-.257-.328-.445-.281.047-.094.078-.227.094-.399.016-.187.023-.297.023-.328.047-.203.141-.383.282-.539a9.26 9.26 0 0 0 .164-.187c.093-.125.164-.235.21-.329.063-.093.071-.14.024-.14.547.062.938-.024 1.172-.258a1.59 1.59 0 0 0 .258-.398c.11-.188.195-.32.258-.399.14-.094.25-.133.328-.117.078 0 .187.04.328.117.156.078.273.117.351.117.22.016.336-.07.352-.257a.484.484 0 0 0-.164-.47c.187.016.21-.116.07-.398a.51.51 0 0 0-.187-.21c-.188-.063-.399-.024-.633.117-.125.062-.11.125.047.187-.016-.016-.094.07-.235.258-.125.172-.25.305-.375.398-.125.094-.25.055-.375-.117a2.055 2.055 0 0 1-.14-.304c-.063-.204-.133-.313-.211-.329-.125 0-.25.118-.375.352.047-.125-.04-.242-.258-.352a1.687 1.687 0 0 0-.562-.187c.296-.188.234-.399-.188-.633-.11-.062-.273-.102-.492-.117-.203-.016-.352.015-.445.094a.78.78 0 0 0-.141.28c0 .063.039.126.117.188a3.448 3.448 0 0 0 .516.211c.11.032.18.055.21.07.22.157.282.266.188.329a5.27 5.27 0 0 1-.21.093c-.095.032-.18.063-.259.094-.078.032-.125.063-.14.094-.047.063-.047.172 0 .328.047.156.031.266-.047.328-.078-.078-.149-.21-.211-.398-.063-.203-.117-.336-.164-.399.11.141-.086.188-.586.141l-.234-.023c-.063 0-.188.015-.375.046-.188.032-.352.04-.493.024a.428.428 0 0 1-.304-.188c-.063-.125-.063-.28 0-.468.015-.063.047-.079.094-.047a5.503 5.503 0 0 1-.258-.211 1.93 1.93 0 0 0-.235-.211c-.718.234-1.453.555-2.203.96a.577.577 0 0 0 .281-.023 4.22 4.22 0 0 0 .305-.14c.125-.078.203-.125.235-.14.53-.22.859-.274.984-.165l.117-.117c.219.25.375.445.469.586-.11-.063-.344-.07-.703-.024-.313.094-.485.188-.516.282.11.187.149.328.117.421A5.4 5.4 0 0 1 12 5.204a1.578 1.578 0 0 0-.328-.258.936.936 0 0 0-.352-.117c-.25 0-.422.008-.515.024a14.79 14.79 0 0 0-5.508 5.203c.11.11.203.172.281.187.063.016.102.086.117.211.016.125.032.211.047.258.031.047.125.023.281-.07.141.125.165.273.07.445.016-.016.36.195 1.032.633.297.265.46.43.492.492.047.172-.031.312-.234.422a1.21 1.21 0 0 0-.211-.211c-.125-.11-.195-.14-.211-.094-.047.078-.047.227 0 .445.062.204.148.297.258.282-.11 0-.188.125-.235.375-.03.25-.046.53-.046.843 0 .297-.008.477-.024.54l.047.023c-.047.187-.008.46.117.82.14.344.313.492.516.446-.203.046-.047.382.468 1.007.094.125.157.196.188.211l.281.188c.14.078.258.156.352.234.094.063.172.14.234.235.063.078.14.257.235.539.093.265.203.445.328.539-.032.093.039.25.21.468.188.22.274.399.258.54a.18.18 0 0 0-.07.023.064.064 0 0 1-.047.023c.047.11.164.22.352.328.203.11.328.211.375.305.015.047.031.125.047.235a.845.845 0 0 0 .07.257c.031.063.094.078.188.047.03-.312-.157-.797-.563-1.453a19.06 19.06 0 0 1-.398-.68 1.616 1.616 0 0 1-.141-.351 1.497 1.497 0 0 0-.094-.352c.031 0 .078.016.14.047a.912.912 0 0 1 .188.07c.078.032.14.063.188.094.047.032.062.055.047.07-.047.11-.032.25.047.422.078.157.171.297.28.422a32.768 32.768 0 0 0 .68.75c.094.094.204.25.329.47.125.202.125.304 0 .304.14 0 .296.086.468.258.172.156.305.304.399.445.078.125.14.328.187.61.047.28.086.468.117.562.032.11.094.218.188.328.11.094.21.164.305.21.093.048.218.11.375.188.156.078.258.133.304.164.079.032.22.118.422.258.219.125.39.211.516.258.156.063.281.094.375.094.094 0 .203-.016.328-.047.14-.047.25-.078.328-.094.235-.031.461.086.68.352.219.265.383.43.492.492.563.297.992.383 1.29.258-.032.015-.032.078 0 .187.046.094.108.211.187.352.093.14.164.258.21.351.063.078.11.14.141.188.078.094.219.21.422.351.203.141.344.258.422.352.094-.063.148-.133.164-.211-.047.125.008.281.164.469.156.187.297.265.422.234.219-.047.328-.297.328-.75-.484.235-.867.094-1.148-.422 0-.015-.024-.054-.07-.117a2.782 2.782 0 0 0-.095-.21l-.046-.188a.376.376 0 0 1 0-.188c.015-.047.054-.07.117-.07.14 0 .219-.024.234-.07.016-.063 0-.165-.047-.305a4.678 4.678 0 0 1-.093-.305c-.016-.125-.102-.281-.258-.469a6.242 6.242 0 0 1-.282-.351c-.078.14-.203.203-.375.187a.465.465 0 0 1-.375-.21.65.65 0 0 1-.046.14.642.642 0 0 0-.024.14c-.203 0-.32-.007-.351-.023.015-.047.03-.18.047-.398a5.03 5.03 0 0 1 .093-.54c.016-.062.055-.156.117-.28.079-.126.141-.235.188-.329.047-.11.078-.21.094-.304.015-.094-.024-.164-.117-.211-.079-.063-.211-.086-.399-.07-.297.015-.5.171-.61.468a5.633 5.633 0 0 0-.07.258.794.794 0 0 1-.117.258.584.584 0 0 1-.21.164c-.11.047-.298.062-.563.047-.266-.016-.453-.055-.563-.117-.203-.125-.383-.352-.539-.68-.14-.328-.21-.617-.21-.867 0-.157.015-.36.046-.61.047-.265.07-.46.07-.586.016-.14-.023-.336-.117-.586.047-.03.117-.101.211-.21a1.34 1.34 0 0 1 .235-.258.208.208 0 0 1 .093-.024c.047-.015.086-.015.117 0 .032 0 .063-.015.094-.047a.298.298 0 0 0 .07-.14.701.701 0 0 0-.093-.07c-.047-.047-.078-.07-.094-.07.11.046.328.038.656-.024.344-.078.563-.07.657.023.234.172.406.156.515-.047a1.4 1.4 0 0 0-.07-.21c-.031-.141-.031-.25 0-.329.078.422.305.492.68.211.046.047.164.086.351.117.203.032.344.07.422.117.047.032.102.079.164.141.063.047.102.078.117.094.032.015.07.015.117 0a.86.86 0 0 0 .211-.164c.157.218.25.406.282.562.172.625.32.969.445 1.032.11.046.195.062.258.046.062-.015.093-.086.093-.21.016-.141.016-.25 0-.329a2.1 2.1 0 0 0-.023-.304l-.023-.188v-.422l-.024-.187c-.234-.047-.383-.14-.445-.282a.506.506 0 0 1 .047-.421c.078-.157.195-.305.351-.446a.645.645 0 0 1 .188-.07c.11-.047.226-.102.351-.164a1.03 1.03 0 0 0 .305-.188c.328-.296.445-.57.352-.82.109 0 .195-.07.257-.21-.015 0-.054-.024-.117-.071a1.226 1.226 0 0 0-.187-.117c-.047-.032-.078-.047-.094-.047.14-.078.156-.203.047-.375.078-.047.133-.133.164-.258.047-.125.11-.203.187-.234.141.187.305.203.493.046.125-.124.132-.25.023-.374.078-.11.234-.188.469-.235.25-.062.398-.14.445-.234.11.031.172.015.188-.047.015-.063.023-.156.023-.281 0-.125.023-.22.07-.282.063-.078.18-.148.352-.21a4.6 4.6 0 0 0 .305-.118l.398-.258c.047-.062.047-.093 0-.093a.848.848 0 0 0 .727-.258c.156-.172.109-.328-.141-.469.047-.094.023-.164-.07-.21a1.033 1.033 0 0 0-.352-.141.676.676 0 0 1 .258 0c.14 0 .227-.016.258-.047.234-.157.18-.282-.164-.375-.266-.078-.602.015-1.008.28Zm-3.82 20.555c3.218-.563 5.96-2.04 8.226-4.43-.047-.047-.148-.078-.305-.094a.944.944 0 0 1-.28-.094 3.708 3.708 0 0 0-.563-.187.424.424 0 0 0-.07-.305.497.497 0 0 0-.188-.21 4.275 4.275 0 0 0-.281-.188 13.587 13.587 0 0 1-.258-.164 2.185 2.185 0 0 0-.164-.14 1.186 1.186 0 0 0-.164-.118.793.793 0 0 0-.188-.117c-.078-.047-.14-.063-.187-.047a.824.824 0 0 1-.235.023l-.07.024a.593.593 0 0 0-.14.07 1.13 1.13 0 0 0-.118.07c-.047.016-.078.04-.094.07-.015.016-.015.032 0 .048-.328-.266-.609-.438-.843-.516a.739.739 0 0 1-.258-.117.996.996 0 0 0-.258-.164.294.294 0 0 0-.234-.047.542.542 0 0 0-.258.164c-.078.078-.125.195-.14.351a1.786 1.786 0 0 1-.048.305c-.109-.078-.109-.21 0-.398.11-.203.125-.352.047-.446-.047-.093-.133-.125-.258-.093a.746.746 0 0 0-.28.093 5.477 5.477 0 0 0-.259.211 2.25 2.25 0 0 1-.21.14 2.278 2.278 0 0 0-.212.142.69.69 0 0 0-.187.164 1.164 1.164 0 0 0-.14.28 1.424 1.424 0 0 1-.118.259c-.031-.063-.125-.11-.281-.14-.14-.048-.211-.095-.211-.142.031.157.063.43.094.82.031.391.07.688.117.891.11.485.016.86-.281 1.125-.422.391-.649.703-.68.938-.063.344.031.547.281.61 0 .109-.062.273-.187.491-.125.204-.18.368-.164.493 0 .093.015.218.047.375Z" fill="#fff"/></svg>